HIERARCHY
ROOT hip
{
  OFFSET 0 0 0
  CHANNELS 6 Xposition Yposition Zposition Zrotation Yrotation Xrotation
  JOINT abdomen
  {
    OFFSET 0 20.6881 -0.73152
    CHANNELS 3 Zrotation Xrotation Yrotation
    JOINT chest
    {
      OFFSET 0 11.7043 -0.48768
      CHANNELS 3 Zrotation Xrotation Yrotation
      JOINT neck
      {
        OFFSET 0 22.1894 -2.19456
        CHANNELS 3 Zrotation Xrotation Yrotation
        JOINT head
        {
          OFFSET -0.24384 7.07133 1.2192
          CHANNELS 3 Zrotation Xrotation Yrotation
          JOINT leftEye
          {
            OFFSET 4.14528 8.04674 8.04672
            CHANNELS 3 Zrotation Xrotation Yrotation
            End Site
            {
              OFFSET 1 0 0
            }
          }
          JOINT rightEye
          {
            OFFSET -3.6576 8.04674 8.04672
            CHANNELS 3 Zrotation Xrotation Yrotation
            End Site
            {
              OFFSET 1 0 0
            }
          }
        }
      }
      JOINT rCollar
      {
        OFFSET -2.68224 19.2634 -4.8768
        CHANNELS 3 Zrotation Xrotation Yrotation
        JOINT rShldr
        {
          OFFSET -8.77824 -1.95073 1.46304
          CHANNELS 3 Zrotation Xrotation Yrotation
          JOINT rForeArm
          {
            OFFSET -28.1742 -1.7115 0.48768
            CHANNELS 3 Zrotation Xrotation Yrotation
            JOINT rHand
            {
              OFFSET -22.5879 0.773209 7.07136
              CHANNELS 3 Zrotation Xrotation Yrotation
              JOINT rThumb1
              {
                OFFSET -1.2192 -0.487915 3.41376
                CHANNELS 3 Zrotation Xrotation Yrotation
                JOINT rThumb2
                {
                  OFFSET -3.37035 -0.52449 3.41376
                  CHANNELS 3 Zrotation Xrotation Yrotation
                  End Site
                  {
                    OFFSET -1.78271 -1.18214 1.43049
                  }
                }
              }
              JOINT rIndex1
              {
                OFFSET -7.75947 0.938293 5.60832
                CHANNELS 3 Zrotation Xrotation Yrotation
                JOINT rIndex2
                {
                  OFFSET -2.54057 -0.884171 1.56538
                  CHANNELS 3 Zrotation Xrotation Yrotation
                  End Site
                  {
                    OFFSET -1.62519 -0.234802 1.16502
                  }
                }
              }
              JOINT rMid1
              {
                OFFSET -8.24714 1.18213 3.41376
                CHANNELS 3 Zrotation Xrotation Yrotation
                JOINT rMid2
                {
                  OFFSET -3.10165 -0.590103 1.0647
                  CHANNELS 3 Zrotation Xrotation Yrotation
                  End Site
                  {
                    OFFSET -2.48547 -0.328903 0.83742
                  }
                }
              }
              JOINT rRing1
              {
                OFFSET -8.82822 0.546677 1.51678
                CHANNELS 3 Zrotation Xrotation Yrotation
                JOINT rRing2
                {
                  OFFSET -2.60934 -0.819778 -0.0198488
                  CHANNELS 3 Zrotation Xrotation Yrotation
                  End Site
                  {
                    OFFSET -2.33842 -0.294052 0.168128
                  }
                }
              }
              JOINT rPinky1
              {
                OFFSET -8.27202 -0.0477905 -0.4584
                CHANNELS 3 Zrotation Xrotation Yrotation
                JOINT rPinky2
                {
                  OFFSET -1.82734 -0.647385 -0.700984
                  CHANNELS 3 Zrotation Xrotation Yrotation
                  End Site
                  {
                    OFFSET -1.69225 -0.51767 -0.607171
                  }
                }
              }
            }
          }
        }
      }
      JOINT lCollar
      {
        OFFSET 2.68224 19.2634 -4.8768
        CHANNELS 3 Zrotation Xrotation Yrotation
        JOINT lShldr
        {
          OFFSET 8.77824 -1.95073 1.46304
          CHANNELS 3 Zrotation Xrotation Yrotation
          JOINT lForeArm
          {
            OFFSET 28.1742 -1.7115 0.48768
            CHANNELS 3 Zrotation Xrotation Yrotation
            JOINT lHand
            {
              OFFSET 22.5879 0.773209 7.07136
              CHANNELS 3 Zrotation Xrotation Yrotation
              JOINT lThumb1
              {
                OFFSET 1.2192 -0.487915 3.41376
                CHANNELS 3 Zrotation Xrotation Yrotation
                JOINT lThumb2
                {
                  OFFSET 3.37035 -0.52449 3.41376
                  CHANNELS 3 Zrotation Xrotation Yrotation
                  End Site
                  {
                    OFFSET 1.78271 -1.18214 1.43049
                  }
                }
              }
              JOINT lIndex1
              {
                OFFSET 7.75947 0.938293 5.60832
                CHANNELS 3 Zrotation Xrotation Yrotation
                JOINT lIndex2
                {
                  OFFSET 2.54057 -0.884171 1.56538
                  CHANNELS 3 Zrotation Xrotation Yrotation
                  End Site
                  {
                    OFFSET 1.62519 -0.234802 1.16502
                  }
                }
              }
              JOINT lMid1
              {
                OFFSET 8.24714 1.18213 3.41376
                CHANNELS 3 Zrotation Xrotation Yrotation
                JOINT lMid2
                {
                  OFFSET 3.10165 -0.590103 1.0647
                  CHANNELS 3 Zrotation Xrotation Yrotation
                  End Site
                  {
                    OFFSET 2.48547 -0.328903 0.83742
                  }
                }
              }
              JOINT lRing1
              {
                OFFSET 8.82822 0.546677 1.51678
                CHANNELS 3 Zrotation Xrotation Yrotation
                JOINT lRing2
                {
                  OFFSET 2.60934 -0.819778 -0.0198488
                  CHANNELS 3 Zrotation Xrotation Yrotation
                  End Site
                  {
                    OFFSET 2.33842 -0.294052 0.168128
                  }
                }
              }
              JOINT lPinky1
              {
                OFFSET 8.27202 -0.0477905 -0.4584
                CHANNELS 3 Zrotation Xrotation Yrotation
                JOINT lPinky2
                {
                  OFFSET 1.82734 -0.647385 -0.700984
                  CHANNELS 3 Zrotation Xrotation Yrotation
                  End Site
                  {
                    OFFSET 1.69225 -0.51767 -0.607171
                  }
                }
              }
            }
          }
        }
      }
    }
  }
  JOINT rButtock
  {
    OFFSET -8.77824 4.35084 1.2192
    CHANNELS 3 Zrotation Xrotation Yrotation
    JOINT rThigh
    {
      OFFSET 0 -1.70687 -2.19456
      CHANNELS 3 Zrotation Xrotation Yrotation
      JOINT rShin
      {
        OFFSET 0 -36.8199 0.73152
        CHANNELS 3 Zrotation Xrotation Yrotation
        JOINT rFoot
        {
          OFFSET 0.73152 -45.1104 -5.12064
          CHANNELS 3 Zrotation Xrotation Yrotation
          End Site
          {
            OFFSET -1.1221 -3.69964 12.103
          }
        }
      }
    }
  }
  JOINT lButtock
  {
    OFFSET 8.77824 4.35084 1.2192
    CHANNELS 3 Zrotation Xrotation Yrotation
    JOINT lThigh
    {
      OFFSET 0 -1.70687 -2.19456
      CHANNELS 3 Zrotation Xrotation Yrotation
      JOINT lShin
      {
        OFFSET 0 -36.8199 0.73152
        CHANNELS 3 Zrotation Xrotation Yrotation
        JOINT lFoot
        {
          OFFSET -0.73152 -45.1104 -5.12064
          CHANNELS 3 Zrotation Xrotation Yrotation
          End Site
          {
            OFFSET 1.1221 -3.69964 12.103
          }
        }
      }
    }
  }
}
MOTION
Frames:	4
Frame Time:	0.03333
-0.043739037340880714 35.53077383600056 0.01535429193461511 -2.9449167251586914 6.693172931671143 4.978224277496338 -2.2592904567718506 14.599534034729004 3.951446056365967 2.5868842601776123 -9.713454246520996 1.1955130100250244 -5.170346260070801 15.583805084228516 -3.8359475135803223 9.191702842712402 -26.2551326751709 -5.741271018981934 -0.02067483402788639 0.08692567050457001 0.021132666617631912 -0.020623445510864258 -0.029408805072307587 -0.00824858620762825 -0.07764732092618942 -0.00911929551512003 0.007473737467080355 46.00252151489258 36.00826644897461 17.925575256347656 -28.669170379638672 -32.09781265258789 62.84837341308594 -1.5881965160369873 -10.092035293579102 -1.2527927160263062 -0.025740474462509155 -0.050180867314338684 -0.027210449799895287 -0.04424118995666504 -0.017865803092718124 0.01677258498966694 -0.005686235148459673 -0.018009943887591362 -0.01018136739730835 7.793027877807617 5.409328937530518 0.38504958152770996 0.107449010014534 0.055263951420784 0.04813455417752266 2.9247398376464844 0.9354828000068665 0.1637585163116455 -0.09018684923648834 -0.007293420378118753 -0.03219263628125191 10.319783210754395 0.7512766122817993 -0.047561872750520706 0.013615364208817482 0.012808345258235931 0.012012554332613945 2.294447183609009 -0.7648886442184448 -0.29552534222602844 -0.02229166589677334 0.01500595174729824 -0.03279484808444977 -53.226497650146484 40.321449279785156 -28.30253028869629 27.567127227783203 -30.61313247680664 -59.90381622314453 1.9569463729858398 -13.701470375061035 1.8987973928451538 0.02603819966316223 -0.00537921953946352 0.004491028841584921 0.0020700842142105103 0.05447053164243698 0.005227356217801571 -0.00835542194545269 -0.039372768253088 0.02720773033797741 -7.699438571929932 5.552218437194824 -0.44992491602897644 -0.01731530949473381 0.04952144995331764 0.0514499694108963 -2.8988900184631348 0.9722199440002441 -0.14606304466724396 0.012986937537789345 -0.08099966496229172 -0.009244345128536224 -10.270857810974121 0.7765378355979919 -0.0104762502014637 0.009561082348227501 -0.014030962251126766 0.029150795191526413 -2.259611129760742 -0.6699280142784119 0.1876142919063568 0.03609683737158775 -0.042337752878665924 -0.06251406669616699 -27.62035369873047 -38.86253356933594 -23.581985473632812 -1.5015997886657715 64.94268035888672 2.5873231887817383 -4.953068256378174 -10.752630233764648 -10.213358879089355 -0.02535993792116642 0.05295121297240257 -0.07127808779478073 33.3989372253418 -37.9696159362793 26.480180740356445 1.5764440298080444 66.20103454589844 -2.691742420196533 5.137781620025635 -10.834025382995605 13.5467529296875
-0.028543147098071722 35.34350712443174 0.04623194966622959 -2.797081470489502 5.659132957458496 4.860215663909912 -2.314192533493042 15.030914306640625 3.773716926574707 2.6156740188598633 -9.89675235748291 1.0310074090957642 -4.781487464904785 15.589797973632812 -2.815544366836548 8.877440452575684 -26.525333404541016 -4.027133464813232 0.040768422186374664 -0.1660861074924469 0.010216264054179192 -0.08080442249774933 0.0647091269493103 -0.012078175321221352 0.031333208084106445 -0.002169468440115452 -0.08528261631727219 46.791534423828125 37.28844451904297 17.473087310791016 -28.13971710205078 -32.43289566040039 63.4328498840332 -1.519540548324585 -10.602531433105469 -1.7233905792236328 0.05015796795487404 0.08518671244382858 0.05891527980566025 -0.060671474784612656 0.014027184806764126 -0.007436207961291075 0.04457470774650574 -0.01617303490638733 0.08862760663032532 7.725466251373291 5.506075859069824 0.40540435910224915 -0.14290593564510345 0.03947751224040985 -0.011610729619860649 2.8972084522247314 0.9480765461921692 0.10921379178762436 0.047982536256313324 -0.05311206355690956 -0.06427421420812607 10.244298934936523 0.718586266040802 0.1998307853937149 -0.03260510414838791 -0.04521583393216133 -0.0023704797495156527 2.2410759925842285 -0.7124519944190979 -0.14514487981796265 0.05911480262875557 -0.020506883040070534 0.0923919826745987 -51.65998840332031 37.96979522705078 -30.64842987060547 27.987524032592773 -30.756572723388672 -58.61948013305664 1.9630553722381592 -14.401876449584961 1.9901925325393677 0.025084521621465683 -0.00150582124479115 0.006840846035629511 -0.00781050743535161 -0.04509063437581062 -0.014249573461711407 -0.0977255254983902 0.1089979037642479 0.020427219569683075 -7.692447185516357 5.3995280265808105 -0.3515876531600952 -0.009403584524989128 -0.13882659375667572 -0.00522006768733263 -2.845052480697632 0.9247393608093262 -0.18463972210884094 -0.057324714958667755 0.0663258507847786 0.048706404864788055 -10.30105972290039 0.7231777906417847 0.010697429068386555 0.014769895002245903 -1.9199016605853103e-05 -0.014995845966041088 -2.220651149749756 -0.8401874899864197 0.15958036482334137 -0.04327024146914482 0.03691176697611809 0.09208565950393677 -28.197450637817383 -39.13756561279297 -23.421072006225586 -1.590399980545044 64.9687728881836 2.689882278442383 -4.796690940856934 -10.91097354888916 -10.557052612304688 0.020630981773138046 -0.010154852643609047 0.025594359263777733 34.448516845703125 -38.900054931640625 27.25005340576172 1.7521679401397705 65.91329956054688 -2.854311466217041 4.720707893371582 -10.33020305633545 13.433151245117188
0.2243157920610894 38.12684677725237 0.7086166517414846 -3.8907294273376465 -5.260219573974609 6.115750312805176 -2.6689293384552 10.85201358795166 0.3872654139995575 3.3291397094726562 -8.090133666992188 0.27097734808921814 -6.923846244812012 15.872907638549805 -6.7397308349609375 10.363091468811035 -24.45455551147461 -11.767633438110352 -0.5065248012542725 -0.07209506630897522 0.15179842710494995 0.0061593386344611645 0.37160083651542664 0.18867602944374084 -0.11049962043762207 -0.29443976283073425 -0.05566931515932083 63.77217483520508 34.836669921875 2.219841241836548 -20.674015045166016 -15.15684986114502 38.9393424987793 0.005167616531252861 -2.50234317779541 0.6656739115715027 0.004957640543580055 -0.09267710894346237 -0.03360025957226753 -0.5491539239883423 0.5011134147644043 -0.23052245378494263 0.08014834672212601 -0.13847854733467102 0.6193298697471619 8.158905982971191 5.125575065612793 0.5500584840774536 0.14250288903713226 -0.11723825335502625 -0.45029616355895996 2.3644347190856934 1.30750572681427 0.32025912404060364 -0.1699569821357727 -0.6017075777053833 0.543699324131012 10.332376480102539 0.4502362310886383 0.029562603682279587 -0.1287558376789093 -0.17213453352451324 0.20932941138744354 2.5512077808380127 -1.337988018989563 -0.3414669930934906 0.2505304217338562 -0.17077399790287018 0.2283974289894104 -65.58397674560547 31.70147705078125 -17.721057891845703 15.84387493133545 -9.342388153076172 -28.5242977142334 1.044420838356018 15.613292694091797 -2.4852800369262695 0.7933875322341919 0.5033148527145386 -0.26555562019348145 -0.08514882624149323 -0.3442899286746979 0.1943529099225998 0.16860491037368774 0.24069125950336456 0.6800474524497986 -7.741889953613281 5.138186454772949 -0.29997649788856506 0.20812374353408813 -0.2798444330692291 0.5693148374557495 -2.7424356937408447 0.9266536235809326 -0.27835121750831604 -0.05837741866707802 0.15719307959079742 0.24929235875606537 -10.00135326385498 1.0735797882080078 0.29665255546569824 -0.18546190857887268 0.13041967153549194 0.2562926113605499 -2.5985331535339355 -0.17578646540641785 0.1904255747795105 0.2642638087272644 -0.4886613190174103 0.11559920012950897 -11.643417358398438 -29.189064025878906 -6.156579971313477 -0.041762784123420715 50.2252311706543 1.5610629320144653 -6.161520004272461 -10.223922729492188 -14.765360832214355 -0.07284970581531525 0.5724608898162842 0.16089875996112823 17.156021118164062 -28.959922790527344 9.773139953613281 0.25027382373809814 49.35072708129883 -1.2803794145584106 5.954937934875488 -8.015360832214355 16.581947326660156
-0.8610288012540284 40.16542943316398 1.072924748083096 -2.4172251224517822 -7.180319786071777 5.0812273025512695 -2.4471704959869385 9.810590744018555 0.9382485151290894 2.776292324066162 -6.710437297821045 0.6917959451675415 -7.1846842765808105 13.957527160644531 -6.194148540496826 10.314390182495117 -22.098451614379883 -11.65224552154541 0.5715435147285461 -0.39670467376708984 -0.0933261439204216 -0.23099450767040253 0.14127326011657715 -0.37856435775756836 -0.17853136360645294 -0.27795588970184326 -0.5981754064559937 68.35901641845703 34.490543365478516 -1.5332340002059937 -16.25010108947754 -6.942795753479004 30.037084579467773 0.7494131326675415 3.7022900581359863 0.5848067998886108 -0.0308280810713768 -0.18973346054553986 0.30763259530067444 -0.6446506977081299 0.06334320455789566 0.2653679847717285 0.24892094731330872 0.27152329683303833 1.0659607648849487 8.000709533691406 5.29641580581665 0.8213853240013123 0.1811794489622116 -0.25120383501052856 -0.21990269422531128 2.984572649002075 1.6361509561538696 0.12672866880893707 0.4594772458076477 -0.02086850255727768 -0.6749512553215027 10.43091869354248 0.27235448360443115 0.6268438696861267 -0.5007827877998352 -0.08306588232517242 0.09963060170412064 2.4279332160949707 -1.4659892320632935 -0.5626896023750305 0.49546173214912415 0.059749823063611984 0.4640754163265228 -71.48970031738281 30.397443771362305 -13.106823921203613 11.240468978881836 -2.1949539184570312 -20.334962844848633 0.06529589742422104 23.740524291992188 -3.85243558883667 0.4599530100822449 0.6098219752311707 -0.3805363178253174 -0.3036773204803467 -0.10631219297647476 0.6695505380630493 0.2131717950105667 -0.05696861818432808 0.35757458209991455 -7.3971028327941895 5.31192684173584 -0.48854947090148926 -0.23057237267494202 -0.33786478638648987 0.5136607885360718 -2.7303245067596436 0.756700873374939 -0.3248341977596283 0.4770832359790802 0.16997718811035156 -0.07863738387823105 -10.049378395080566 1.1174029111862183 -0.05968054383993149 -0.08258087933063507 0.027556022629141808 -0.087215356528759 -2.639930486679077 -0.8535828590393066 0.04656551033258438 -0.1505427062511444 -0.09672018140554428 0.10794491320848465 -3.784836530685425 -26.91405487060547 3.229336977005005 -0.4421176612377167 46.46903610229492 1.0486366748809814 -5.946722030639648 -12.171043395996094 -13.574339866638184 0.017666110768914223 0.45735856890678406 0.10016988962888718 6.481485843658447 -24.916210174560547 -1.3708279132843018 0.5488486289978027 43.06049346923828 -1.1709644794464111 4.1513848304748535 -8.869771957397461 15.039422988891602
